<svg id="visual" viewBox="0 0 5120 2880" width="5120" height="2880" xmlns="http://www.w3.org/2000/svg" xmlns:xlink="http://www.w3.org/1999/xlink" version="1.1"><path d="M0 1890L121.8 1845C243.7 1800 487.3 1710 731.2 1679C975 1648 1219 1676 1462.8 1721.3C1706.7 1766.7 1950.3 1829.3 2194.2 1846.8C2438 1864.3 2682 1836.7 2925.8 1852.8C3169.7 1869 3413.3 1929 3657.2 1868.5C3901 1808 4145 1627 4388.8 1579C4632.7 1531 4876.3 1616 4998.2 1658.5L5120 1701L5120 2881L4998.2 2881C4876.3 2881 4632.7 2881 4388.8 2881C4145 2881 3901 2881 3657.2 2881C3413.3 2881 3169.7 2881 2925.8 2881C2682 2881 2438 2881 2194.2 2881C1950.3 2881 1706.7 2881 1462.8 2881C1219 2881 975 2881 731.2 2881C487.3 2881 243.7 2881 121.8 2881L0 2881Z" fill="#0c9ee8"></path><path d="M0 1978L121.8 1955.7C243.7 1933.3 487.3 1888.7 731.2 1862.3C975 1836 1219 1828 1462.8 1862.5C1706.7 1897 1950.3 1974 2194.2 1973.3C2438 1972.7 2682 1894.3 2925.8 1879.2C3169.7 1864 3413.3 1912 3657.2 1909.2C3901 1906.3 4145 1852.7 4388.8 1851C4632.7 1849.3 4876.3 1899.7 4998.2 1924.8L5120 1950L5120 2881L4998.2 2881C4876.3 2881 4632.7 2881 4388.8 2881C4145 2881 3901 2881 3657.2 2881C3413.3 2881 3169.7 2881 2925.8 2881C2682 2881 2438 2881 2194.2 2881C1950.3 2881 1706.7 2881 1462.8 2881C1219 2881 975 2881 731.2 2881C487.3 2881 243.7 2881 121.8 2881L0 2881Z" fill="#0093f3"></path><path d="M0 2365L121.8 2366.2C243.7 2367.3 487.3 2369.7 731.2 2351.5C975 2333.3 1219 2294.7 1462.8 2292.7C1706.7 2290.7 1950.3 2325.3 2194.2 2304.8C2438 2284.3 2682 2208.7 2925.8 2161.8C3169.7 2115 3413.3 2097 3657.2 2101.8C3901 2106.7 4145 2134.3 4388.8 2123C4632.7 2111.7 4876.3 2061.3 4998.2 2036.2L5120 2011L5120 2881L4998.2 2881C4876.3 2881 4632.7 2881 4388.8 2881C4145 2881 3901 2881 3657.2 2881C3413.3 2881 3169.7 2881 2925.8 2881C2682 2881 2438 2881 2194.2 2881C1950.3 2881 1706.7 2881 1462.8 2881C1219 2881 975 2881 731.2 2881C487.3 2881 243.7 2881 121.8 2881L0 2881Z" fill="#0086fa"></path><path d="M0 2496L121.8 2448C243.7 2400 487.3 2304 731.2 2263.7C975 2223.3 1219 2238.7 1462.8 2285.7C1706.7 2332.7 1950.3 2411.3 2194.2 2448.3C2438 2485.3 2682 2480.7 2925.8 2455C3169.7 2429.3 3413.3 2382.7 3657.2 2373.7C3901 2364.7 4145 2393.3 4388.8 2385C4632.7 2376.7 4876.3 2331.3 4998.2 2308.7L5120 2286L5120 2881L4998.2 2881C4876.3 2881 4632.7 2881 4388.8 2881C4145 2881 3901 2881 3657.2 2881C3413.3 2881 3169.7 2881 2925.8 2881C2682 2881 2438 2881 2194.2 2881C1950.3 2881 1706.7 2881 1462.8 2881C1219 2881 975 2881 731.2 2881C487.3 2881 243.7 2881 121.8 2881L0 2881Z" fill="#0077fe"></path><path d="M0 2575L121.8 2598.8C243.7 2622.7 487.3 2670.3 731.2 2672.5C975 2674.7 1219 2631.3 1462.8 2615.2C1706.7 2599 1950.3 2610 2194.2 2617.2C2438 2624.3 2682 2627.7 2925.8 2620.5C3169.7 2613.3 3413.3 2595.7 3657.2 2592.3C3901 2589 4145 2600 4388.8 2584.5C4632.7 2569 4876.3 2527 4998.2 2506L5120 2485L5120 2881L4998.2 2881C4876.3 2881 4632.7 2881 4388.8 2881C4145 2881 3901 2881 3657.2 2881C3413.3 2881 3169.7 2881 2925.8 2881C2682 2881 2438 2881 2194.2 2881C1950.3 2881 1706.7 2881 1462.8 2881C1219 2881 975 2881 731.2 2881C487.3 2881 243.7 2881 121.8 2881L0 2881Z" fill="#0066ff"></path></svg>